P3
	4 4
	255
	0  0  100   100 50  0       0  123  0    255   0 255
	0  0  0    0 255 175     0  0  124     56    0  10
	0  0  0    0  167  0       0 15 175    0    0  0
	255 0 255  0  0  30       0  0  0    255  255 255
